<svg width="32" height="24" viewBox="0 0 32 24" fill="none" xmlns="http://www.w3.org/2000/svg">
  <g clip-path="url(#clip0_1_23)">
    <path d="M29 0.5H3C1.61929 0.5 0.5 1.61929 0.5 3V21C0.5 22.3807 1.61929 23.5 3 23.5H29C30.3807 23.5 31.5 22.3807 31.5 21V3C31.5 1.61929 30.3807 0.5 29 0.5Z" fill="#F0F0FF" stroke="#D9D8FF"/>
    <path fill-rule="evenodd" clip-rule="evenodd" d="M16.5 4L17.2375 4.45385V19.5462L16.5 20L15.6292 19.4641V4.5359L16.5 4ZM21.3924 7.01068L23 8V16L18.4438 18.8038V5.19615L20.0521 6.18589V6.20738L21.3924 7.03216V7.01068ZM21.3924 9.01165V15.0105L20.0521 15.8352V8.18686L21.3924 9.01165ZM10 8.00001V14.0428V16L14.4229 18.7218V5.27822L12.8146 6.26796V15.7749L11.6083 15.0326V7.01027L10 8.00001Z" fill="#4945FF"/>
  </g>
  <defs>
    <clipPath id="clip0_1_23">
      <rect width="32" height="24" fill="white"/>
    </clipPath>
  </defs>
</svg>
