<svg width="32" height="24" viewBox="0 0 32 24" fill="none" xmlns="http://www.w3.org/2000/svg">
<g clip-path="url(#clip0_601_5)">
<mask id="mask0_601_5" style="mask-type:luminance" maskUnits="userSpaceOnUse" x="0" y="0" width="32" height="24">
<path d="M32 0H0V24H32V0Z" fill="white"/>
</mask>
<g mask="url(#mask0_601_5)">
<path d="M29 0.5H3C1.61929 0.5 0.5 1.61929 0.5 3V21C0.5 22.3807 1.61929 23.5 3 23.5H29C30.3807 23.5 31.5 22.3807 31.5 21V3C31.5 1.61929 30.3807 0.5 29 0.5Z" fill="#8E5CF6" stroke="#535155"/>
</g>
<path d="M14.4997 8.14321C15.3269 8.14321 16 7.43784 16 6.57161C16 5.70537 15.3269 5 14.4997 5C13.6731 5 13 5.70537 13 6.57161C13 7.43784 13.6731 8.14321 14.4997 8.14321ZM13.6817 15C14.0574 15 14.3634 14.6794 14.3634 14.2856V9.14276C14.3634 8.74902 14.0574 8.42839 13.6817 8.42839C13.306 8.42839 13 8.74902 13 9.14276V14.2856C13 14.6794 13.306 15 13.6817 15Z" fill="white"/>
<path d="M18.6801 8H16.1582C15.7806 8 15.473 8.30146 15.4576 8.70472C15.44 9.1766 15.3523 11.6575 15.3523 14.1187C15.3523 16.1918 14.5536 16.5709 12.9815 16.5709C11.0996 16.5709 10.4001 15.9061 10.4001 14.1187V8.71485C10.4001 8.32115 10.0859 8.00056 9.70006 8.00056C9.3142 8.00056 9 8.32115 9 8.71485V14.1187C9 16.694 10.34 18 12.982 18C14.601 18 16.7535 17.5979 16.7541 14.1187C16.7541 12.2565 16.8048 10.3729 16.8351 9.4297H18.6806C19.9809 9.4297 21.5999 9.4297 21.5999 12.865C21.5999 15.9522 19.8905 16.41 18.0456 16.4454C17.8587 16.4471 17.6834 16.5236 17.5522 16.6597C17.4211 16.7964 17.3505 16.9764 17.3522 17.167C17.3555 17.5568 17.6697 17.8746 18.0704 17.8746C21.3414 17.811 23 16.126 23 12.8656C23 8 19.8613 8 18.6801 8Z" fill="white"/>
</g>
<defs>
<clipPath id="clip0_601_5">
<rect width="32" height="24" fill="white"/>
</clipPath>
</defs>
</svg>
